<?xml version="1.0" standalone="no"?>
<!DOCTYPE svg PUBLIC "-//W3C//DTD SVG 20010904//EN"
 "http://www.w3.org/TR/2001/REC-SVG-20010904/DTD/svg10.dtd">
<svg version="1.0" xmlns="http://www.w3.org/2000/svg"
 width="455.000000pt" height="200.000000pt" viewBox="0 0 455.000000 200.000000"
 preserveAspectRatio="xMidYMid meet">
<metadata>
Created by potrace 1.16, written by Peter Selinger 2001-2019
</metadata>
<g transform="translate(0.000000,200.000000) scale(0.100000,-0.100000)"
fill="#000000" stroke="none">
<path d="M1572 1937 c-20 -44 -27 -73 -24 -99 4 -38 5 -39 362 -298 54 -40
515 -377 627 -459 68 -49 76 -53 100 -42 27 12 70 60 66 73 -2 5 2 8 8 8 13 0
48 40 49 56 0 5 7 19 16 30 8 10 12 12 8 4 -4 -9 2 -6 15 6 12 11 24 36 27 55
6 34 4 36 -90 107 -53 40 -94 78 -91 84 2 8 -48 52 -115 102 -66 49 -120 96
-120 103 0 8 10 18 23 23 20 8 9 15 -17 11 -5 -1 4 13 19 31 15 18 39 34 54
36 33 4 211 89 211 101 0 5 20 33 45 63 25 30 45 58 45 62 0 3 -93 6 -208 6
l-207 0 -60 -80 c-36 -48 -72 -86 -90 -94 -29 -12 -33 -10 -154 81 l-124 93
-174 -1 -173 0 -28 -62z"/>
<path d="M3797 1873 c-7 -164 0 -535 12 -592 5 -24 13 -46 18 -50 9 -6 17
-103 48 -586 19 -290 20 -264 -15 -271 -18 -4 -27 -11 -23 -18 10 -15 31 -166
24 -166 -3 0 -41 41 -84 90 -75 86 -80 90 -119 90 -38 0 -40 -1 -26 -17 17
-20 45 -227 35 -263 -4 -16 0 -20 21 -20 18 0 23 3 14 9 -12 7 -47 211 -40
232 2 4 54 -50 117 -122 83 -95 116 -127 122 -117 6 10 9 8 9 -7 0 -11 7 -31
16 -43 15 -22 16 -22 320 -22 l305 0 -3 82 c-2 54 -7 83 -15 86 -7 2 -13 -3
-13 -11 0 -9 5 -17 12 -19 9 -3 9 -6 0 -12 -18 -11 -29 27 -39 137 -9 106 -5
121 35 110 21 -5 22 -2 22 61 0 36 -4 66 -9 66 -16 0 -32 63 -38 153 l-6 87
27 0 c25 0 26 2 26 60 0 46 -3 60 -15 60 -8 0 -21 10 -29 23 -16 24 -42 204
-31 215 3 3 22 5 41 3 l34 -3 0 56 c0 47 -3 56 -18 56 -38 0 -60 28 -71 93 -6
35 -11 82 -11 105 l0 42 50 0 50 0 -1 88 c-1 73 -3 83 -12 60 -6 -16 -14 -28
-18 -28 -4 0 -12 12 -17 28 -9 24 -10 25 -11 5 -2 -44 -21 -23 -21 22 0 55 13
58 33 8 l16 -38 7 33 c3 17 10 32 15 32 5 0 9 77 8 170 l0 170 -373 0 -373 0
-6 -127z m388 87 c78 -11 95 -25 95 -76 0 -56 -7 -64 -61 -64 -63 0 -145 18
-159 35 -6 7 -13 36 -17 64 l-6 51 39 0 c21 0 71 -5 109 -10z m-229 -965 c29
-334 47 -606 47 -693 0 -133 -2 -145 -21 -165 -12 -11 -25 -18 -28 -14 -10 9
-22 309 -34 852 -5 248 -12 484 -15 525 -12 200 9 -8 51 -505z m390 -247 c14
-13 22 -216 10 -236 -18 -29 -195 -17 -229 17 -14 13 -19 42 -25 125 -4 59 -5
110 -2 113 11 11 233 -5 246 -19z m22 -367 c21 -11 22 -19 22 -124 0 -75 -4
-117 -12 -125 -14 -14 -165 -16 -201 -3 -13 5 -27 17 -31 27 -10 27 -28 215
-21 232 4 12 24 14 113 10 60 -3 118 -11 130 -17z"/>
<path d="M1610 958 c24 -13 25 -17 30 -145 6 -155 5 -161 -23 -166 -18 -4 58
-7 251 -11 26 -1 27 1 29 54 3 55 3 55 -11 24 -8 -17 -24 -39 -37 -48 -28 -19
-102 -21 -117 -3 -5 6 -11 73 -13 146 l-4 135 25 7 c17 5 4 7 -40 8 -36 1 -76
4 -90 7 l-25 6 25 -14z"/>
<path d="M2036 940 c-102 -31 -128 -174 -48 -264 67 -75 214 -72 262 6 24 40
27 126 5 167 -39 76 -135 116 -219 91z m102 -16 c33 -23 50 -64 58 -135 11
-111 -36 -178 -105 -149 -46 19 -66 70 -66 168 0 79 1 85 28 108 33 28 54 30
85 8z"/>
<path d="M2405 799 c-27 -73 -58 -143 -68 -155 l-18 -24 38 0 c26 0 33 3 24 9
-10 6 -12 19 -7 45 l7 36 58 0 c58 0 58 0 76 -39 9 -22 14 -44 11 -50 -5 -7
12 -11 51 -11 37 0 53 3 44 9 -7 5 -48 77 -90 160 l-77 151 -49 -131z"/>
<path d="M2665 900 c18 -21 38 -259 23 -277 -8 -10 -5 -13 17 -13 21 0 25 3
17 13 -10 12 -36 226 -28 234 1 2 54 -55 116 -127 62 -72 114 -129 116 -127 1
1 -3 63 -11 137 -7 74 -11 139 -8 144 3 4 -1 12 -8 17 -22 14 -33 11 -19 -5
10 -13 32 -165 24 -174 -3 -4 -54 52 -118 130 -42 50 -51 56 -91 60 -38 3 -42
1 -30 -12z"/>
<path d="M997 440 c-14 -11 -30 -20 -37 -20 -6 0 -9 -4 -6 -9 3 -5 -5 -20 -19
-35 -29 -32 -20 -35 12 -4 l24 22 -3 -157 -3 -157 40 0 c22 0 51 -3 65 -5 24
-5 24 -5 3 4 -21 9 -23 17 -23 86 l0 75 45 0 c77 0 115 29 115 86 0 61 -51 94
-143 94 -61 0 -74 7 -49 26 9 7 14 14 11 14 -4 0 -18 -9 -32 -20z"/>
<path d="M692 398 c-6 -18 -21 -48 -33 -67 -18 -30 -22 -33 -31 -18 -5 9 -14
17 -20 17 -6 0 -2 -10 10 -22 l21 -23 -24 -50 c-13 -27 -24 -55 -24 -61 -1 -6
-15 -30 -31 -52 l-30 -42 37 1 c21 0 32 3 26 6 -16 6 -17 34 -1 68 10 23 16
25 74 25 44 0 67 -5 78 -16 19 -18 30 -59 21 -73 -4 -7 13 -11 50 -11 l55 0
-29 58 c-39 79 -121 269 -121 281 0 23 -16 10 -28 -21z"/>
<path d="M1283 403 c14 -17 17 -41 17 -167 0 -143 -1 -147 -22 -156 -16 -6 4
-9 67 -8 51 0 79 3 65 7 -23 6 -25 12 -28 79 l-3 72 36 0 c87 0 141 57 115
120 -18 44 -51 57 -165 65 -99 7 -100 7 -82 -12z"/>
<path d="M1604 394 c12 -12 16 -38 16 -117 0 -56 3 -118 6 -138 4 -26 2 -40
-11 -52 -15 -16 -7 -17 124 -17 l140 0 6 55 c8 60 1 85 -10 37 -10 -49 -49
-77 -105 -77 -27 0 -52 4 -57 8 -4 5 -10 75 -12 157 l-3 148 28 5 c16 2 -8 5
-54 6 -76 1 -82 0 -68 -15z"/>
<path d="M1931 400 c26 -11 26 -11 34 -162 6 -122 4 -152 -6 -159 -9 -5 10 -9
50 -9 55 0 62 2 51 15 -19 23 -29 284 -12 302 11 11 6 13 -31 13 -24 0 -60 2
-78 5 -32 5 -33 5 -8 -5z"/>
<path d="M2199 377 c-50 -33 -82 -100 -75 -157 13 -94 89 -159 187 -160 48 0
108 30 117 60 3 8 -9 2 -27 -13 -35 -29 -79 -35 -126 -17 -53 20 -87 163 -56
238 29 70 116 79 170 16 l31 -35 0 48 c0 33 -3 43 -9 34 -8 -12 -16 -13 -49
-3 -63 19 -124 15 -163 -11z"/>
<path d="M2566 253 c-26 -76 -56 -149 -65 -163 l-18 -25 43 -1 c42 -1 43 -1
22 16 -18 14 -19 21 -11 46 9 27 13 29 69 32 60 3 60 3 72 -31 16 -45 15 -55
-5 -59 -10 -2 15 -4 54 -4 73 0 73 0 54 21 -10 11 -51 84 -90 163 -39 78 -72
142 -74 142 -1 0 -24 -62 -51 -137z"/>
<path d="M2770 378 c0 -7 3 -23 6 -36 l7 -23 11 23 c8 16 22 24 47 26 l35 3
12 -142 c9 -106 10 -145 1 -155 -9 -12 -2 -14 45 -13 40 1 54 5 47 13 -5 6
-14 65 -21 131 -6 66 -13 130 -16 143 -4 19 0 22 26 22 19 0 40 -9 55 -25 l25
-24 0 29 0 30 -97 1 c-54 0 -117 2 -140 5 -31 4 -43 1 -43 -8z"/>
<path d="M3115 370 c12 -20 35 -283 26 -294 -7 -8 6 -11 43 -11 52 0 52 0 40
25 -14 29 -38 265 -29 280 4 6 -12 10 -40 10 -29 0 -44 -4 -40 -10z"/>
<path d="M3323 347 c-31 -29 -37 -41 -41 -89 -10 -122 87 -214 205 -195 130
21 136 221 9 298 -20 12 -49 19 -84 19 -45 0 -57 -4 -89 -33z m152 -3 c29 -31
49 -119 43 -186 -9 -86 -64 -114 -118 -60 -56 56 -67 232 -17 264 25 16 68 8
92 -18z"/>
</g>
</svg>
